<svg xmlns="http://www.w3.org/2000/svg" width="475.084" height="475.084" viewBox="0 0 475.084 475.084"><defs><style>.s5klwwo9xpq { fill: #2c3e50; }</style></defs><path class="s5klwwo9xpq" d="M464.524 412.846l-97.93-97.925c23.6-34.067 35.407-72.046 35.407-113.916 0-27.218-5.283-53.25-15.85-78.087-10.562-24.842-24.84-46.254-42.826-64.24-17.987-17.988-39.396-32.265-64.233-42.827C254.247 5.285 228.218.003 201 .003c-27.217 0-53.248 5.282-78.086 15.847-24.842 10.562-46.254 24.84-64.24 42.826-17.99 17.987-32.265 39.403-42.828 64.24C5.282 147.76 0 173.787 0 201.005c0 27.216 5.282 53.238 15.846 78.083 10.562 24.838 24.838 46.247 42.827 64.234 17.987 17.994 39.403 32.265 64.24 42.833 24.842 10.563 50.87 15.844 78.086 15.844 41.878 0 79.85-11.807 113.92-35.405l97.93 97.64c6.852 7.232 15.406 10.85 25.693 10.85 9.897 0 18.467-3.617 25.694-10.85 7.23-7.23 10.848-15.795 10.848-25.692.003-10.082-3.518-18.65-10.56-25.694zm-173.16-121.488c-25.03 25.033-55.15 37.55-90.365 37.55-35.21 0-65.33-12.52-90.36-37.55-25.032-25.03-37.547-55.144-37.547-90.36 0-35.21 12.518-65.334 37.546-90.36 25.025-25.032 55.15-37.546 90.36-37.546s65.33 12.52 90.363 37.546 37.548 55.15 37.548 90.36c0 35.216-12.518 65.33-37.547 90.36z"/></svg>